<?xml version="1.0" encoding="utf-8"?>
<svg version="1.1" width="24" height="24" viewBox="0 0 24 24" xmlns="http://www.w3.org/2000/svg">
  <path d="M 5.478 17.015 L 5.478 9.015 L 3.478 9.015 L 3.478 7.015 L 7.478 7.015 L 7.478 17.015 L 5.478 17.015 M 23.478 15.015 C 23.478 16.125 22.578 17.015 21.478 17.015 L 17.478 17.015 L 17.478 15.015 L 21.478 15.015 L 21.478 13.015 L 19.478 13.015 L 19.478 11.015 L 21.478 11.015 L 21.478 9.015 L 17.478 9.015 L 17.478 7.015 L 21.478 7.015 C 22.583 7.015 23.478 7.91 23.478 9.015 L 23.478 10.515 C 23.478 11.343 22.806 12.015 21.978 12.015 C 22.806 12.015 23.478 12.687 23.478 13.515 L 23.478 15.015 M 15.478 15.015 L 15.478 17.015 L 9.478 17.015 L 9.478 13.015 C 9.478 11.905 10.378 11.015 11.478 11.015 L 13.478 11.015 L 13.478 9.015 L 9.478 9.015 L 9.478 7.015 L 13.478 7.015 C 14.583 7.015 15.478 7.91 15.478 9.015 L 15.478 11.015 C 15.478 12.125 14.578 13.015 13.478 13.015 L 11.478 13.015 L 11.478 15.015 L 15.478 15.015 Z"/>
  <rect y="15.166" width="1.87" height="1.87" style="" x="0.478"/>
</svg>